<?xml version="1.0" standalone="no"?>
<!DOCTYPE svg PUBLIC "-//W3C//DTD SVG 20010904//EN"
 "http://www.w3.org/TR/2001/REC-SVG-20010904/DTD/svg10.dtd">
<svg version="1.0" xmlns="http://www.w3.org/2000/svg"
 width="225.000000pt" height="225.000000pt" viewBox="0 0 225.000000 225.000000"
 preserveAspectRatio="xMidYMid meet">
<metadata>
Created by potrace 1.10, written by Peter Selinger 2001-2011
</metadata>
<g transform="translate(0.000000,225.000000) scale(0.100000,-0.100000)"
fill="#1c1717" stroke="none">
<path d="M815 2168 c-34 -9 -78 -48 -295 -267 -269 -269 -294 -301 -340 -437
-63 -182 -39 -411 62 -582 43 -75 188 -220 258 -260 227 -128 524 -118 735 25
84 57 243 213 285 280 59 92 23 206 -77 249 -84 36 -127 16 -285 -134 -151
-143 -179 -157 -313 -157 -78 0 -97 4 -146 28 -135 66 -222 221 -205 366 12
105 41 145 292 407 191 199 234 249 240 279 23 126 -88 233 -211 203z m90 -28
c53 -20 95 -81 95 -137 0 -51 -20 -80 -136 -199 -289 -294 -322 -331 -355
-395 -95 -187 -10 -435 180 -520 103 -46 233 -43 332 6 26 14 103 77 170 140
127 121 152 134 223 121 22 -4 47 -21 70 -46 31 -34 36 -47 36 -88 0 -63 -22
-96 -141 -215 -114 -113 -224 -188 -318 -218 -93 -29 -272 -37 -366 -15 -200
47 -393 212 -472 404 -90 220 -59 485 76 657 40 51 413 427 466 470 53 44 92
53 140 35z"/>
<path d="M1235 1701 c-89 -22 -147 -48 -227 -102 -76 -51 -268 -244 -291 -292
-50 -105 21 -231 136 -244 65 -8 100 14 239 145 156 148 195 167 328 159 143
-7 238 -73 301 -205 58 -120 48 -243 -25 -347 -20 -27 -129 -146 -243 -263
-114 -118 -213 -224 -220 -236 -35 -61 4 -174 73 -213 45 -26 121 -30 162 -9
15 8 135 124 267 258 254 257 297 313 335 435 75 241 28 484 -129 679 -163
201 -453 298 -706 235z m365 -36 c202 -64 366 -223 441 -427 28 -78 34 -122
33 -248 -1 -96 -6 -127 -27 -188 -44 -125 -81 -176 -282 -381 -290 -295 -319
-321 -367 -321 -33 0 -93 31 -117 61 -25 33 -38 101 -24 135 4 12 100 117 213
233 277 286 313 342 312 484 0 105 -39 195 -120 277 -73 74 -143 102 -257 104
-135 2 -188 -26 -350 -182 -57 -56 -113 -106 -124 -111 -11 -6 -40 -11 -65
-11 -39 0 -52 6 -86 36 -43 39 -63 89 -53 135 11 56 192 247 306 323 121 79
208 104 369 105 99 1 130 -3 198 -24z"/>
</g>
</svg>
